<svg height="512" viewBox="0 0 64 64" width="512" xmlns="http://www.w3.org/2000/svg"><g id="Copyright-2" data-name="Copyright"><path d="m52 10v31c0 11.05-20 20-20 20a63.484 63.484 0 0 1 -10-5.86c-5-3.62-10-8.62-10-14.14v-31a10.727 10.727 0 0 0 10-7h20a10.727 10.727 0 0 0 10 7z" fill="#ff9811"/><path d="m48 13.42v27.58c0 3.11-4.37 9.93-15.96 15.57a59.72 59.72 0 0 1 -7.69-4.67 34.807 34.807 0 0 1 -4.5-3.81c-2.52-2.56-3.85-4.99-3.85-7.09v-27.58a12.706 12.706 0 0 0 8-6.42h16a12.706 12.706 0 0 0 8 6.42z" fill="#ff5023"/><path d="m48 13.48v27.52c0 3.11-4.37 9.93-15.96 15.57a59.72 59.72 0 0 1 -7.69-4.67 34.807 34.807 0 0 1 -4.5-3.81c10.06-7.23 21.52-18.41 28.15-34.61z" fill="#ed1c24"/><circle cx="32" cy="30" fill="#ffd422" r="11"/><path d="m32 42a12 12 0 1 1 12-12 12.013 12.013 0 0 1 -12 12zm0-22a10 10 0 1 0 10 10 10.011 10.011 0 0 0 -10-10z" fill="#cd2a00"/><path d="m32 35a5 5 0 1 1 3.75-8.307l-1.5 1.323a3 3 0 1 0 0 3.968l1.5 1.323a5 5 0 0 1 -3.75 1.693z" fill="#ff5023"/></g></svg>