<svg id="Layer_1_1_" enable-background="new 0 0 64 64" height="512" viewBox="0 0 64 64" width="512" xmlns="http://www.w3.org/2000/svg"><path d="m12 31 20 9 20-9-20-9z" fill="#6c253d"/><circle cx="32" cy="29" fill="#f4b34a" r="11"/><path d="m43 29c0 1.5-.3 2.94-.84 4.24-1.67 3.97-5.58 6.76-10.16 6.76s-8.49-2.79-10.16-6.76c-.54-1.3-.84-2.74-.84-4.24 0-6.08 4.92-11 11-11s11 4.92 11 11z" fill="#f4b34a"/><path d="m42.16 33.24c-1.67 3.97-5.58 6.76-10.16 6.76s-8.49-2.79-10.16-6.76l10.16 4.57z" fill="#e58842"/><path d="m32 14c-4.962 0-9 4.037-9 9 0 2.404.932 4.657 2.628 6.355.707.708 1.86.855 2.661.256.977-.73 1.071-2.1.294-2.954-.526-.578-1.039-1.185-1.291-1.926-1.183-3.482 1.39-6.731 4.708-6.731 3.714 0 6.991 1.846 8.983 4.665-.064-1.723-.619-3.32-1.521-4.665h17.538v-16h-41c-1.105 0-2 .895-2 2 0 1.105.895 2 2 2-1.105 0-2 .895-2 2 0 1.105.895 2 2 2-1.105 0-2 .895-2 2 0 1.105.895 2 2 2z" fill="#e8dac5"/><g fill="#f9f1e4"><path d="m52 5h2v2h-2z"/><path d="m48 5h2v2h-2z"/><path d="m52 9h2v2h-2z"/></g><path d="m34 6h-18c-1.105 0-2-.895-2-2h20z" fill="#dbc6a9"/><path d="m34 10h-18c-1.105 0-2-.895-2-2h20z" fill="#dbc6a9"/><path d="m32 28c-.551 0-1-.449-1-1v-1c0-.551.449-1 1-1s1 .449 1 1h2c0-1.302-.839-2.402-2-2.816v-1.184h-2v1.184c-1.161.414-2 1.514-2 2.816v1c0 1.654 1.346 3 3 3 .551 0 1 .449 1 1v1c0 .551-.449 1-1 1s-1-.449-1-1h-2c0 1.302.839 2.402 2 2.816v1.184h2v-1.184c1.161-.414 2-1.514 2-2.816v-1c0-1.654-1.346-3-3-3z" fill="#6c253d"/><path d="m52 40v13l-20 9v-22z" fill="#3c1991"/><path d="m52 31 7 9-20 10-7-10z" fill="#732de2"/><path d="m32 40v22l-20-9v-13z" fill="#4c1ea5"/><path d="m32 40-7 10-20-10 7-9z" fill="#732de2"/></svg>