<svg height="2cm" viewBox="0 0 64 64" width="2cm" xmlns="http://www.w3.org/2000/svg"><path d="m61 32a18.043 18.043 0 1 1 -4.09-11.42 17.931 17.931 0 0 1 4.09 11.42z" fill="#ff6243"/><circle cx="43" cy="32" fill="#ff9478" r="14"/><circle cx="43" cy="32" fill="#ffbcab" r="12"/><path d="m47.034 31.575a3.953 3.953 0 0 0 .966-2.575 4 4 0 0 0 -3-3.858v-2.142a1 1 0 0 0 -2 0v2h-1v-2a1 1 0 0 0 -2 0v2h-1.71a1 1 0 0 0 -1 1 .989.989 0 0 0 .721.944c0 .019-.011.036-.011.056v4.85a.39.39 0 0 0 0 .3v4.85h-.42a1 1 0 0 0 0 2h2.42v2a1 1 0 0 0 2 0v-2h1v2a1 1 0 0 0 2 0v-2a3.988 3.988 0 0 0 2.034-7.425zm-3.034-4.575a2 2 0 0 1 0 4h-4v-4zm2.413 9.413a1.983 1.983 0 0 1 -1.413.587h-5v-4h5a2 2 0 0 1 1.413 3.413z" fill="#d80027"/><path d="m39 32a18.043 18.043 0 1 1 -4.09-11.42 17.931 17.931 0 0 1 4.09 11.42z" fill="#ff9811"/><circle cx="21" cy="32" fill="#ffc477" r="14"/><circle cx="21" cy="32" fill="#ffdaaa" r="12"/><path d="m21 31a2 2 0 1 1 2-2 1 1 0 0 0 2 0 4 4 0 0 0 -3-3.858v-2.142a1 1 0 0 0 -2 0v2.142a3.992 3.992 0 0 0 1 7.858 2 2 0 1 1 -2 2 1 1 0 0 0 -2 0 4 4 0 0 0 3 3.858v2.142a1 1 0 0 0 2 0v-2.142a3.992 3.992 0 0 0 -1-7.858z" fill="#ff5023"/><path d="m4.736 16.736a1 1 0 0 1 -.706-1.708q.37-.369.753-.72a1 1 0 1 1 1.352 1.473q-.351.322-.692.663a1 1 0 0 1 -.707.292z" fill="#5eac24"/><path d="m8.709 13.554a1 1 0 0 1 -.536-1.845c.6-.379 1.223-.736 1.855-1.061a1 1 0 0 1 .914 1.778c-.578.3-1.15.625-1.7.973a1 1 0 0 1 -.533.155zm19.67-2.344a1.02 1.02 0 0 1 -.32-.052c-.617-.209-1.25-.391-1.881-.544a1 1 0 1 1 .468-1.944c.689.166 1.379.365 2.053.592a1 1 0 0 1 -.32 1.948zm-14.105-.21a1 1 0 0 1 -.29-1.957c.677-.206 1.373-.385 2.069-.531a1 1 0 0 1 .411 1.957c-.639.134-1.277.3-1.9.487a.985.985 0 0 1 -.29.044zm8.094-.96h-.06c-.45-.027-.916-.046-1.349-.039q-.306 0-.609.009a1 1 0 0 1 -.061-2c.237-.01.473-.01.711-.01q.71 0 1.424.042a1 1 0 0 1 -.058 2z" fill="#5eac24"/><path d="m32.988 13.366a1 1 0 0 1 -.52-.147q-.41-.251-.827-.481a1 1 0 1 1 .968-1.75q.456.252.9.525a1 1 0 0 1 -.523 1.853z" fill="#5eac24"/><g fill="#ff5023"><path d="m58.557 47.556q-.341.341-.692.663a1 1 0 1 0 1.352 1.473q.383-.351.753-.72a1 1 0 1 0 -1.413-1.416z"/><path d="m38.469 53.531c-.614-.129-1.233-.286-1.839-.469a1 1 0 0 0 -.576 1.916c.66.2 1.335.37 2 .511a1.036 1.036 0 0 0 .206.021 1 1 0 0 0 .2-1.979z"/><path d="m44.134 53.971q-.95.048-1.9.016a1 1 0 1 0 -.069 2c.277.01.555.014.835.014q.618 0 1.234-.032a1 1 0 1 0 -.1-2z"/><path d="m54.858 50.536c-.53.341-1.082.662-1.639.954a1 1 0 0 0 .928 1.771c.609-.319 1.212-.669 1.791-1.041a1 1 0 1 0 -1.08-1.684z"/><path d="m49.721 52.953c-.6.192-1.215.359-1.831.5a1 1 0 1 0 .443 1.95c.672-.153 1.344-.336 2-.545a1 1 0 0 0 -.609-1.9z"/><path d="m32.655 53.55a.984.984 0 0 1 -.45-.108c-.309-.156-.617-.319-.921-.489a1 1 0 1 1 .977-1.745q.42.234.845.449a1 1 0 0 1 -.451 1.893z"/></g></svg>