<svg height="453pt" viewBox="0 -2 453.22711 453" width="453pt" xmlns="http://www.w3.org/2000/svg"><path d="m238.597656 80.113281c0 39.765625-32.234375 72-72 72s-72-32.234375-72-72 32.234375-72 72-72 72 32.234375 72 72zm0 0" fill="#f29a2b"/><path d="m110.597656 256.113281c-1.78125.003907-3.511718-.589843-4.910156-1.6875l-72-56c-2.699219-2.097656-3.761719-5.679687-2.652344-8.910156s4.144532-5.402344 7.5625-5.402344h72v16h-48.6875l48.6875 37.863281 67.089844-52.175781c1.402344-1.09375 3.128906-1.6875 4.910156-1.6875h240v16h-237.257812l-69.832032 54.3125c-1.402343 1.097657-3.128906 1.691407-4.910156 1.6875zm0 0" fill="#909091"/><path d="m444.597656 372.355469c2.507813 17-2.503906 34.25-13.730468 47.261719-11.230469 13.011718-27.5625 20.492187-44.75 20.496093h-232c36.082031 0 36.480468-216 36.480468-216h232zm0 0" fill="#b82301"/><path d="m212.597656 372.355469c2.507813 17-2.503906 34.25-13.730468 47.261719-11.230469 13.011718-27.5625 20.492187-44.75 20.496093h-87.039063c-17.1875-.003906-33.519531-7.484375-44.75-20.496093-11.226563-13.011719-16.238281-30.261719-13.730469-47.261719l22-148.242188 80 64 80-64zm0 0" fill="#ea2839"/><path d="m342.597656 200.113281h-80c-4.417968 0-8-3.582031-8-8v-32c0-4.417969 3.582032-8 8-8h80c4.417969 0 8 3.582031 8 8v32c0 4.417969-3.582031 8-8 8zm-72-16h64v-16h-64zm0 0" fill="#909091"/><path d="m302.597656 168.113281c-13.253906 0-24-10.746093-24-24 0-13.253906 10.746094-24 24-24s24 10.746094 24 24c0 13.253907-10.746094 24-24 24zm0 0" fill="#909091"/><path d="m190.597656 41.585938v-9.472657h-16v8h-16v-8h-16v8c-4.417968 0-8 3.582031-8 8v64c0 4.417969 3.582032 8 8 8v8h16v-8h16v8h16v-9.472656c7.566406-2.617187 13.308594-8.867187 15.273438-16.628906 1.96875-7.761719-.105469-15.992188-5.511719-21.898438 5.40625-5.90625 7.480469-14.136719 5.511719-21.898437-1.964844-7.761719-7.707032-14.011719-15.273438-16.628906zm-40 14.527343h32c4.417969 0 8 3.582031 8 8s-3.582031 8-8 8h-32zm32 48h-32v-16h32c4.417969 0 8 3.582031 8 8s-3.582031 8-8 8zm0 0" fill="#de722a"/><path d="m86.597656 80.113281c0 44.183594 35.816406 80 80 80s80-35.816406 80-80c0-44.183593-35.816406-80-80-80-44.164062.046875-79.953125 35.835938-80 80zm144 0c0 35.347657-28.652344 64-64 64s-64-28.652343-64-64c0-35.347656 28.652344-64 64-64 35.328125.039063 63.960938 28.671875 64 64zm0 0"/><path d="m158.597656 40.113281v-8h-16v8c-4.417968 0-8 3.582031-8 8v64c0 4.417969 3.582032 8 8 8v8h16v-8h16v8h16v-9.472656c7.566406-2.617187 13.308594-8.867187 15.273438-16.628906 1.96875-7.761719-.105469-15.992188-5.511719-21.898438 5.40625-5.90625 7.480469-14.136719 5.511719-21.898437-1.964844-7.761719-7.707032-14.011719-15.273438-16.628906v-9.472657h-16v8zm24 32h-32v-16h32c4.417969 0 8 3.582031 8 8s-3.582031 8-8 8zm0 32h-32v-16h32c4.417969 0 8 3.582031 8 8s-3.582031 8-8 8zm0 0"/><path d="m27.667969 216.664062c-2.664063 1.050782-4.566407 3.445313-4.980469 6.28125l-21.960938 148.242188c-2.863281 19.296875 2.820313 38.886719 15.566407 53.660156 12.742187 14.773438 31.289062 23.265625 50.800781 23.265625h319.007812c19.515626.011719 38.070313-8.476562 50.824219-23.253906 12.75-14.773437 18.4375-34.367187 15.574219-53.671875l-21.957031-148.242188c-.582031-3.9375-3.96875-6.847656-7.945313-6.832031h-232v.0625c-1.808594-.023437-3.574218.574219-5 1.691407l-75 60.007812-75-60c-2.234375-1.796875-5.261718-2.257812-7.929687-1.210938zm408.976562 156.867188c2.171875 14.695312-2.15625 29.609375-11.863281 40.859375-9.703125 11.246094-23.824219 17.71875-38.679688 17.722656h-188.65625c17.859376-14.84375 26.605469-37.980469 23.023438-60.925781l-20.597656-139.074219h215.832031zm-400.175781-134.472656 69.128906 55.304687c2.921875 2.339844 7.078125 2.339844 10 0l69.128906-55.304687 19.917969 134.472656c2.171875 14.695312-2.15625 29.609375-11.863281 40.859375-9.703125 11.246094-23.824219 17.71875-38.679688 17.722656h-87.007812c-14.855469-.003906-28.976562-6.476562-38.679688-17.722656-9.707031-11.25-14.035156-26.164063-11.863281-40.859375zm0 0"/><path d="m33.6875 198.425781 72 56c2.886719 2.246094 6.933594 2.246094 9.820312 0l69.832032-54.3125h237.257812v-16h-72v-24c0-4.417969-3.582031-8-8-8h-17.472656c.949219-2.5625 1.445312-5.269531 1.472656-8 0-13.253906-10.746094-24-24-24s-24 10.746094-24 24c.027344 2.730469.523438 5.4375 1.472656 8h-17.472656c-4.417968 0-8 3.582031-8 8v24h-72c-1.78125 0-3.507812.59375-4.910156 1.6875l-67.089844 52.175781-48.6875-37.863281h48.6875v-16h-72c-3.417968 0-6.453125 2.171875-7.5625 5.402344s-.046875 6.8125 2.652344 8.910156zm260.910156-54.3125c0-4.417969 3.582032-8 8-8 4.417969 0 8 3.582031 8 8s-3.582031 8-8 8c-4.417968 0-8-3.582031-8-8zm-24 24h64v16h-64zm0 0"/></svg>