<svg id="Fill_out_line" height="512" viewBox="0 0 512 512" width="512" xmlns="http://www.w3.org/2000/svg" data-name="Fill out line"><circle cx="344" cy="208" fill="#f2e368" r="144"/><circle cx="344" cy="208" fill="#eacf4d" r="112"/><path d="m16 240h72v184h-72z" fill="#3ea7ff"/><path d="m440 315.32007v20.67993a80.01154 80.01154 0 0 1 -42.35 70.59l-50.81 27.09a79.92876 79.92876 0 0 1 -56.41 7.18l-202.43-48.86v-136h16a67.88769 67.88769 0 0 1 96 0l6.17-6.17 39.89-39.89a33.94113 33.94113 0 1 1 48 48l-20.77 20.77c-16.8 16.80005-13.61 43.05005 2.99 56.4a37.6986 37.6986 0 0 0 15.87 7.49l1.32.28 41.13 8.82 1.4.3h8a143.42547 143.42547 0 0 0 96-36.67993z" fill="#ffc7cc"/><path d="m344 56c-83.813 0-152 68.187-152 152a152.55791 152.55791 0 0 0 3.83008 34.04736 76.02558 76.02558 0 0 0 -95.03808 5.95264h-4.792v-8a7.99977 7.99977 0 0 0 -8-8h-72v16h64v168h-64v16h72a7.99977 7.99977 0 0 0 8-8v-21.83911l192.54834 46.47729a87.92359 87.92359 0 0 0 62.06055-7.89648l50.80273-27.0947a87.84074 87.84074 0 0 0 46.58838-77.647v-17.25806a151.59481 151.59481 0 0 0 48-110.74194c0-83.813-68.187-152-152-152zm88 280a71.87121 71.87121 0 0 1 -38.11768 63.52979l-50.80273 27.09421a71.91519 71.91519 0 0 1 -50.77686 6.46045l-196.30273-47.38328v-121.70117h8a7.99877 7.99877 0 0 0 5.65674-2.34326 59.95113 59.95113 0 0 1 84.68652 0 8 8 0 0 0 11.31348 0l46.05908-46.05908a25.94129 25.94129 0 0 1 36.68652 36.68652l-20.77343 20.77344a45.91877 45.91877 0 0 0 22.84814 77.36914l43.84668 9.39551a7.99227 7.99227 0 0 0 1.67627.17773h8a151.16908 151.16908 0 0 0 88-28.12988zm-80-48v-16.22754a35.99756 35.99756 0 0 0 -4-71.77246h-8a20 20 0 0 1 0-40h8a20.02292 20.02292 0 0 1 20 20v4h16v-4a36.04748 36.04748 0 0 0 -32-35.77246v-16.22754h-16v16.22754a35.99756 35.99756 0 0 0 4 71.77246h8a20 20 0 0 1 0 40h-8a20.02292 20.02292 0 0 1 -20-20v-4h-8.04926a41.93781 41.93781 0 0 0 -71.5484-27.71582l-.34185.3418a103.99838 103.99838 0 1 1 36.4497 82.49731 31.18982 31.18982 0 0 1 2.43219-2.7522l20.77344-20.77343a41.98379 41.98379 0 0 0 8.13355-11.43079 36.06923 36.06923 0 0 0 28.15063 19.60559v16.22754zm-8 56h-7.15234l-43.01807-9.21777a29.51543 29.51543 0 0 1 -22.4248-20.78174 30.2087 30.2087 0 0 1 -1.13117-11.31568 120.00281 120.00281 0 1 0 -46.27362-94.68481c0 4.02954.20227 8.07861.60229 12.084l-14.08715 14.0869a136.80646 136.80646 0 0 1 -2.51514-26.1709c0-74.99072 61.00928-136 136-136s136 61.00928 136 136-61.00928 136-136 136z"/></svg>